<svg id="visual" viewBox="0 0 900 300" width="900" height="300" xmlns="http://www.w3.org/2000/svg" xmlns:xlink="http://www.w3.org/1999/xlink" version="1.1"><rect x="0" y="0" width="900" height="300" fill="#ff0066"></rect><path d="M0 142L16.7 139.5C33.3 137 66.7 132 100 128.5C133.3 125 166.7 123 200 122.3C233.3 121.7 266.7 122.3 300 123.2C333.3 124 366.7 125 400 129C433.3 133 466.7 140 500 136.8C533.3 133.7 566.7 120.3 600 112.5C633.3 104.7 666.7 102.3 700 108.7C733.3 115 766.7 130 800 137C833.3 144 866.7 143 883.3 142.5L900 142L900 0L883.3 0C866.7 0 833.3 0 800 0C766.7 0 733.3 0 700 0C666.7 0 633.3 0 600 0C566.7 0 533.3 0 500 0C466.7 0 433.3 0 400 0C366.7 0 333.3 0 300 0C266.7 0 233.3 0 200 0C166.7 0 133.3 0 100 0C66.7 0 33.3 0 16.7 0L0 0Z" fill="#ff0066"></path><path d="M0 91L16.7 91.2C33.3 91.3 66.7 91.7 100 89.8C133.3 88 166.7 84 200 87.7C233.3 91.3 266.7 102.7 300 108.7C333.3 114.7 366.7 115.3 400 112C433.3 108.7 466.7 101.3 500 95.5C533.3 89.7 566.7 85.3 600 84.8C633.3 84.3 666.7 87.7 700 91.2C733.3 94.7 766.7 98.3 800 100C833.3 101.7 866.7 101.3 883.3 101.2L900 101L900 0L883.3 0C866.7 0 833.3 0 800 0C766.7 0 733.3 0 700 0C666.7 0 633.3 0 600 0C566.7 0 533.3 0 500 0C466.7 0 433.3 0 400 0C366.7 0 333.3 0 300 0C266.7 0 233.3 0 200 0C166.7 0 133.3 0 100 0C66.7 0 33.3 0 16.7 0L0 0Z" fill="#f30080"></path><path d="M0 83L16.7 82.2C33.3 81.3 66.7 79.7 100 78.2C133.3 76.7 166.7 75.3 200 73.8C233.3 72.3 266.7 70.7 300 73.5C333.3 76.3 366.7 83.7 400 85.8C433.3 88 466.7 85 500 82C533.3 79 566.7 76 600 78.8C633.3 81.7 666.7 90.3 700 89C733.3 87.7 766.7 76.3 800 71.3C833.3 66.3 866.7 67.7 883.3 68.3L900 69L900 0L883.3 0C866.7 0 833.3 0 800 0C766.7 0 733.3 0 700 0C666.7 0 633.3 0 600 0C566.7 0 533.3 0 500 0C466.7 0 433.3 0 400 0C366.7 0 333.3 0 300 0C266.7 0 233.3 0 200 0C166.7 0 133.3 0 100 0C66.7 0 33.3 0 16.7 0L0 0Z" fill="#de0098"></path><path d="M0 62L16.7 61.2C33.3 60.3 66.7 58.7 100 60.8C133.3 63 166.7 69 200 69.7C233.3 70.3 266.7 65.7 300 62C333.3 58.3 366.7 55.7 400 53.3C433.3 51 466.7 49 500 52.8C533.3 56.7 566.7 66.3 600 72.2C633.3 78 666.7 80 700 76C733.3 72 766.7 62 800 60C833.3 58 866.7 64 883.3 67L900 70L900 0L883.3 0C866.7 0 833.3 0 800 0C766.7 0 733.3 0 700 0C666.7 0 633.3 0 600 0C566.7 0 533.3 0 500 0C466.7 0 433.3 0 400 0C366.7 0 333.3 0 300 0C266.7 0 233.3 0 200 0C166.7 0 133.3 0 100 0C66.7 0 33.3 0 16.7 0L0 0Z" fill="#c100b0"></path><path d="M0 52L16.7 48C33.3 44 66.7 36 100 36.2C133.3 36.3 166.7 44.7 200 49.7C233.3 54.7 266.7 56.3 300 54.8C333.3 53.3 366.7 48.7 400 47.8C433.3 47 466.7 50 500 50.7C533.3 51.3 566.7 49.7 600 45.7C633.3 41.7 666.7 35.3 700 32C733.3 28.7 766.7 28.3 800 29.3C833.3 30.3 866.7 32.7 883.3 33.8L900 35L900 0L883.3 0C866.7 0 833.3 0 800 0C766.7 0 733.3 0 700 0C666.7 0 633.3 0 600 0C566.7 0 533.3 0 500 0C466.7 0 433.3 0 400 0C366.7 0 333.3 0 300 0C266.7 0 233.3 0 200 0C166.7 0 133.3 0 100 0C66.7 0 33.3 0 16.7 0L0 0Z" fill="#9419c7"></path><path d="M0 13L16.7 15.2C33.3 17.3 66.7 21.7 100 21.7C133.3 21.7 166.7 17.3 200 18C233.3 18.7 266.7 24.3 300 24.7C333.3 25 366.7 20 400 20.7C433.3 21.3 466.7 27.7 500 28.2C533.3 28.7 566.7 23.3 600 20.5C633.3 17.7 666.7 17.3 700 16.3C733.3 15.3 766.7 13.7 800 13C833.3 12.3 866.7 12.7 883.3 12.8L900 13L900 0L883.3 0C866.7 0 833.3 0 800 0C766.7 0 733.3 0 700 0C666.7 0 633.3 0 600 0C566.7 0 533.3 0 500 0C466.7 0 433.3 0 400 0C366.7 0 333.3 0 300 0C266.7 0 233.3 0 200 0C166.7 0 133.3 0 100 0C66.7 0 33.3 0 16.7 0L0 0Z" fill="#3c31dd"></path></svg>