<svg id="visual" viewBox="0 0 900 300" width="900" height="300" xmlns="http://www.w3.org/2000/svg" xmlns:xlink="http://www.w3.org/1999/xlink" version="1.1"><rect x="0" y="0" width="900" height="300" fill="#001220"></rect><path d="M0 178L21.5 178.8C43 179.7 86 181.3 128.8 188.2C171.7 195 214.3 207 257.2 208.2C300 209.3 343 199.7 385.8 197C428.7 194.3 471.3 198.7 514.2 196.3C557 194 600 185 642.8 186C685.7 187 728.3 198 771.2 201.7C814 205.3 857 201.7 878.5 199.8L900 198L900 301L878.5 301C857 301 814 301 771.2 301C728.3 301 685.7 301 642.8 301C600 301 557 301 514.2 301C471.3 301 428.7 301 385.8 301C343 301 300 301 257.2 301C214.3 301 171.7 301 128.8 301C86 301 43 301 21.5 301L0 301Z" fill="#fa7268"></path><path d="M0 213L21.5 216.2C43 219.3 86 225.7 128.8 227.7C171.7 229.7 214.3 227.3 257.2 223.7C300 220 343 215 385.8 213.8C428.7 212.7 471.3 215.3 514.2 219.2C557 223 600 228 642.8 226.3C685.7 224.7 728.3 216.3 771.2 213.7C814 211 857 214 878.5 215.5L900 217L900 301L878.5 301C857 301 814 301 771.2 301C728.3 301 685.7 301 642.8 301C600 301 557 301 514.2 301C471.3 301 428.7 301 385.8 301C343 301 300 301 257.2 301C214.3 301 171.7 301 128.8 301C86 301 43 301 21.5 301L0 301Z" fill="#ef5f67"></path><path d="M0 243L21.5 239.8C43 236.7 86 230.3 128.8 228.8C171.7 227.3 214.3 230.7 257.2 232.2C300 233.7 343 233.3 385.8 234C428.7 234.7 471.3 236.3 514.2 234C557 231.7 600 225.3 642.8 226C685.7 226.7 728.3 234.3 771.2 240.3C814 246.3 857 250.7 878.5 252.8L900 255L900 301L878.5 301C857 301 814 301 771.2 301C728.3 301 685.7 301 642.8 301C600 301 557 301 514.2 301C471.3 301 428.7 301 385.8 301C343 301 300 301 257.2 301C214.3 301 171.7 301 128.8 301C86 301 43 301 21.5 301L0 301Z" fill="#e34c67"></path><path d="M0 271L21.5 267.8C43 264.7 86 258.3 128.8 255C171.7 251.7 214.3 251.3 257.2 249.3C300 247.3 343 243.7 385.8 243.3C428.7 243 471.3 246 514.2 249.2C557 252.3 600 255.7 642.8 255.7C685.7 255.7 728.3 252.3 771.2 250.5C814 248.7 857 248.3 878.5 248.2L900 248L900 301L878.5 301C857 301 814 301 771.2 301C728.3 301 685.7 301 642.8 301C600 301 557 301 514.2 301C471.3 301 428.7 301 385.8 301C343 301 300 301 257.2 301C214.3 301 171.7 301 128.8 301C86 301 43 301 21.5 301L0 301Z" fill="#d53867"></path><path d="M0 262L21.5 263.2C43 264.3 86 266.7 128.8 268.2C171.7 269.7 214.3 270.3 257.2 271.8C300 273.3 343 275.7 385.8 275C428.7 274.3 471.3 270.7 514.2 268.2C557 265.7 600 264.3 642.8 265.8C685.7 267.3 728.3 271.7 771.2 272.3C814 273 857 270 878.5 268.5L900 267L900 301L878.5 301C857 301 814 301 771.2 301C728.3 301 685.7 301 642.8 301C600 301 557 301 514.2 301C471.3 301 428.7 301 385.8 301C343 301 300 301 257.2 301C214.3 301 171.7 301 128.8 301C86 301 43 301 21.5 301L0 301Z" fill="#c62368"></path></svg>