<svg id="visual" viewBox="0 0 900 300" width="900" height="300" xmlns="http://www.w3.org/2000/svg" xmlns:xlink="http://www.w3.org/1999/xlink" version="1.1"><rect x="0" y="0" width="900" height="300" fill="#001220"></rect><path d="M0 86L21.5 87.8C43 89.7 86 93.3 128.8 96.3C171.7 99.3 214.3 101.7 257.2 104C300 106.3 343 108.7 385.8 111.3C428.7 114 471.3 117 514.2 114.3C557 111.7 600 103.3 642.8 97.7C685.7 92 728.3 89 771.2 92.5C814 96 857 106 878.5 111L900 116L900 0L878.5 0C857 0 814 0 771.2 0C728.3 0 685.7 0 642.8 0C600 0 557 0 514.2 0C471.3 0 428.7 0 385.8 0C343 0 300 0 257.2 0C214.3 0 171.7 0 128.8 0C86 0 43 0 21.5 0L0 0Z" fill="#071f32"></path><path d="M0 68L21.5 72.8C43 77.7 86 87.3 128.8 86.2C171.7 85 214.3 73 257.2 72.7C300 72.3 343 83.7 385.8 88.5C428.7 93.3 471.3 91.7 514.2 86.5C557 81.3 600 72.7 642.8 74.2C685.7 75.7 728.3 87.3 771.2 90.5C814 93.7 857 88.3 878.5 85.7L900 83L900 0L878.5 0C857 0 814 0 771.2 0C728.3 0 685.7 0 642.8 0C600 0 557 0 514.2 0C471.3 0 428.7 0 385.8 0C343 0 300 0 257.2 0C214.3 0 171.7 0 128.8 0C86 0 43 0 21.5 0L0 0Z" fill="#003164"></path><path d="M0 58L21.5 58.7C43 59.3 86 60.7 128.8 64C171.7 67.3 214.3 72.7 257.2 70.5C300 68.3 343 58.7 385.8 57.7C428.7 56.7 471.3 64.3 514.2 65.3C557 66.3 600 60.7 642.8 61.8C685.7 63 728.3 71 771.2 69.2C814 67.3 857 55.7 878.5 49.8L900 44L900 0L878.5 0C857 0 814 0 771.2 0C728.3 0 685.7 0 642.8 0C600 0 557 0 514.2 0C471.3 0 428.7 0 385.8 0C343 0 300 0 257.2 0C214.3 0 171.7 0 128.8 0C86 0 43 0 21.5 0L0 0Z" fill="#2d3c93"></path><path d="M0 31L21.5 34.5C43 38 86 45 128.8 46.5C171.7 48 214.3 44 257.2 44.5C300 45 343 50 385.8 48.7C428.7 47.3 471.3 39.7 514.2 39.3C557 39 600 46 642.8 47.8C685.7 49.7 728.3 46.3 771.2 43.7C814 41 857 39 878.5 38L900 37L900 0L878.5 0C857 0 814 0 771.2 0C728.3 0 685.7 0 642.8 0C600 0 557 0 514.2 0C471.3 0 428.7 0 385.8 0C343 0 300 0 257.2 0C214.3 0 171.7 0 128.8 0C86 0 43 0 21.5 0L0 0Z" fill="#743ab8"></path><path d="M0 22L21.5 20.8C43 19.7 86 17.3 128.8 15.8C171.7 14.3 214.3 13.7 257.2 13.3C300 13 343 13 385.8 16.7C428.7 20.3 471.3 27.7 514.2 28.8C557 30 600 25 642.8 25.2C685.7 25.3 728.3 30.7 771.2 31.3C814 32 857 28 878.5 26L900 24L900 0L878.5 0C857 0 814 0 771.2 0C728.3 0 685.7 0 642.8 0C600 0 557 0 514.2 0C471.3 0 428.7 0 385.8 0C343 0 300 0 257.2 0C214.3 0 171.7 0 128.8 0C86 0 43 0 21.5 0L0 0Z" fill="#c408ca"></path></svg>