<svg id="visual" viewBox="0 0 900 300" width="900" height="300" xmlns="http://www.w3.org/2000/svg" xmlns:xlink="http://www.w3.org/1999/xlink" version="1.1"><rect x="0" y="0" width="900" height="300" fill="#001220"></rect><path d="M0 119L21.5 115.2C43 111.3 86 103.7 128.8 96.5C171.7 89.3 214.3 82.7 257.2 81.7C300 80.7 343 85.3 385.8 89.2C428.7 93 471.3 96 514.2 95C557 94 600 89 642.8 91.7C685.7 94.3 728.3 104.7 771.2 109.3C814 114 857 113 878.5 112.5L900 112L900 0L878.5 0C857 0 814 0 771.2 0C728.3 0 685.7 0 642.8 0C600 0 557 0 514.2 0C471.3 0 428.7 0 385.8 0C343 0 300 0 257.2 0C214.3 0 171.7 0 128.8 0C86 0 43 0 21.5 0L0 0Z" fill="#001220"></path><path d="M0 78L21.5 75C43 72 86 66 128.8 66.5C171.7 67 214.3 74 257.2 75.7C300 77.3 343 73.7 385.8 73C428.7 72.3 471.3 74.7 514.2 79.8C557 85 600 93 642.8 93C685.7 93 728.3 85 771.2 78.8C814 72.7 857 68.3 878.5 66.2L900 64L900 0L878.5 0C857 0 814 0 771.2 0C728.3 0 685.7 0 642.8 0C600 0 557 0 514.2 0C471.3 0 428.7 0 385.8 0C343 0 300 0 257.2 0C214.3 0 171.7 0 128.8 0C86 0 43 0 21.5 0L0 0Z" fill="#021e34"></path><path d="M0 60L21.5 60.2C43 60.3 86 60.7 128.8 60.8C171.7 61 214.3 61 257.2 62.7C300 64.3 343 67.7 385.8 68.5C428.7 69.3 471.3 67.7 514.2 63.3C557 59 600 52 642.8 53C685.7 54 728.3 63 771.2 64C814 65 857 58 878.5 54.5L900 51L900 0L878.5 0C857 0 814 0 771.2 0C728.3 0 685.7 0 642.8 0C600 0 557 0 514.2 0C471.3 0 428.7 0 385.8 0C343 0 300 0 257.2 0C214.3 0 171.7 0 128.8 0C86 0 43 0 21.5 0L0 0Z" fill="#002a49"></path><path d="M0 45L21.5 42.7C43 40.3 86 35.7 128.8 37.8C171.7 40 214.3 49 257.2 51.5C300 54 343 50 385.8 49.7C428.7 49.3 471.3 52.7 514.2 50.3C557 48 600 40 642.8 35.5C685.7 31 728.3 30 771.2 31.7C814 33.3 857 37.7 878.5 39.8L900 42L900 0L878.5 0C857 0 814 0 771.2 0C728.3 0 685.7 0 642.8 0C600 0 557 0 514.2 0C471.3 0 428.7 0 385.8 0C343 0 300 0 257.2 0C214.3 0 171.7 0 128.8 0C86 0 43 0 21.5 0L0 0Z" fill="#003660"></path><path d="M0 16L21.5 16.3C43 16.7 86 17.3 128.8 20C171.7 22.7 214.3 27.3 257.2 27.3C300 27.3 343 22.7 385.8 20.3C428.7 18 471.3 18 514.2 20C557 22 600 26 642.8 25.3C685.7 24.7 728.3 19.3 771.2 19.5C814 19.7 857 25.3 878.5 28.2L900 31L900 0L878.5 0C857 0 814 0 771.2 0C728.3 0 685.7 0 642.8 0C600 0 557 0 514.2 0C471.3 0 428.7 0 385.8 0C343 0 300 0 257.2 0C214.3 0 171.7 0 128.8 0C86 0 43 0 21.5 0L0 0Z" fill="#004377"></path></svg>