<svg id="visual" viewBox="0 0 900 300" width="900" height="300" xmlns="http://www.w3.org/2000/svg" xmlns:xlink="http://www.w3.org/1999/xlink" version="1.1"><rect x="0" y="0" width="900" height="300" fill="#c408ca"></rect><path d="M0 104L21.5 104.5C43 105 86 106 128.8 113.3C171.7 120.7 214.3 134.3 257.2 134.3C300 134.3 343 120.7 385.8 118.8C428.7 117 471.3 127 514.2 128C557 129 600 121 642.8 115.5C685.7 110 728.3 107 771.2 107.8C814 108.7 857 113.3 878.5 115.7L900 118L900 0L878.5 0C857 0 814 0 771.2 0C728.3 0 685.7 0 642.8 0C600 0 557 0 514.2 0C471.3 0 428.7 0 385.8 0C343 0 300 0 257.2 0C214.3 0 171.7 0 128.8 0C86 0 43 0 21.5 0L0 0Z" fill="#d200da"></path><path d="M0 77L21.5 78.7C43 80.3 86 83.7 128.8 85C171.7 86.3 214.3 85.7 257.2 84.5C300 83.3 343 81.7 385.8 84.8C428.7 88 471.3 96 514.2 98C557 100 600 96 642.8 95.8C685.7 95.7 728.3 99.3 771.2 100C814 100.7 857 98.3 878.5 97.2L900 96L900 0L878.5 0C857 0 814 0 771.2 0C728.3 0 685.7 0 642.8 0C600 0 557 0 514.2 0C471.3 0 428.7 0 385.8 0C343 0 300 0 257.2 0C214.3 0 171.7 0 128.8 0C86 0 43 0 21.5 0L0 0Z" fill="#ec00b9"></path><path d="M0 91L21.5 89.8C43 88.7 86 86.3 128.8 80.7C171.7 75 214.3 66 257.2 66.5C300 67 343 77 385.8 76.3C428.7 75.7 471.3 64.3 514.2 59.5C557 54.7 600 56.3 642.8 56.7C685.7 57 728.3 56 771.2 58.2C814 60.3 857 65.7 878.5 68.3L900 71L900 0L878.5 0C857 0 814 0 771.2 0C728.3 0 685.7 0 642.8 0C600 0 557 0 514.2 0C471.3 0 428.7 0 385.8 0C343 0 300 0 257.2 0C214.3 0 171.7 0 128.8 0C86 0 43 0 21.5 0L0 0Z" fill="#f9009c"></path><path d="M0 51L21.5 52C43 53 86 55 128.8 53.7C171.7 52.3 214.3 47.7 257.2 46.3C300 45 343 47 385.8 51.5C428.7 56 471.3 63 514.2 60.3C557 57.7 600 45.3 642.8 39.2C685.7 33 728.3 33 771.2 34.3C814 35.7 857 38.3 878.5 39.7L900 41L900 0L878.5 0C857 0 814 0 771.2 0C728.3 0 685.7 0 642.8 0C600 0 557 0 514.2 0C471.3 0 428.7 0 385.8 0C343 0 300 0 257.2 0C214.3 0 171.7 0 128.8 0C86 0 43 0 21.5 0L0 0Z" fill="#ff0081"></path><path d="M0 20L21.5 20.5C43 21 86 22 128.8 24.8C171.7 27.7 214.3 32.3 257.2 31.3C300 30.3 343 23.7 385.8 21C428.7 18.3 471.3 19.7 514.2 20.7C557 21.7 600 22.3 642.8 25.8C685.7 29.3 728.3 35.7 771.2 36.3C814 37 857 32 878.5 29.5L900 27L900 0L878.5 0C857 0 814 0 771.2 0C728.3 0 685.7 0 642.8 0C600 0 557 0 514.2 0C471.3 0 428.7 0 385.8 0C343 0 300 0 257.2 0C214.3 0 171.7 0 128.8 0C86 0 43 0 21.5 0L0 0Z" fill="#ff0066"></path></svg>