<svg id="visual" viewBox="0 0 900 300" width="900" height="300" xmlns="http://www.w3.org/2000/svg" xmlns:xlink="http://www.w3.org/1999/xlink" version="1.1"><rect x="0" y="0" width="900" height="300" fill="#004377"></rect><path d="M0 119L21.5 118.7C43 118.3 86 117.7 128.8 112.8C171.7 108 214.3 99 257.2 97.3C300 95.7 343 101.3 385.8 102.5C428.7 103.7 471.3 100.3 514.2 101.3C557 102.3 600 107.7 642.8 106.8C685.7 106 728.3 99 771.2 95.7C814 92.3 857 92.7 878.5 92.8L900 93L900 0L878.5 0C857 0 814 0 771.2 0C728.3 0 685.7 0 642.8 0C600 0 557 0 514.2 0C471.3 0 428.7 0 385.8 0C343 0 300 0 257.2 0C214.3 0 171.7 0 128.8 0C86 0 43 0 21.5 0L0 0Z" fill="#004377"></path><path d="M0 94L21.5 89C43 84 86 74 128.8 71.8C171.7 69.7 214.3 75.3 257.2 79.2C300 83 343 85 385.8 81.7C428.7 78.3 471.3 69.7 514.2 69.3C557 69 600 77 642.8 82.3C685.7 87.7 728.3 90.3 771.2 86C814 81.7 857 70.3 878.5 64.7L900 59L900 0L878.5 0C857 0 814 0 771.2 0C728.3 0 685.7 0 642.8 0C600 0 557 0 514.2 0C471.3 0 428.7 0 385.8 0C343 0 300 0 257.2 0C214.3 0 171.7 0 128.8 0C86 0 43 0 21.5 0L0 0Z" fill="#1f4999"></path><path d="M0 75L21.5 72.2C43 69.3 86 63.7 128.8 63.5C171.7 63.3 214.3 68.7 257.2 70C300 71.3 343 68.7 385.8 68.8C428.7 69 471.3 72 514.2 69.5C557 67 600 59 642.8 59C685.7 59 728.3 67 771.2 67C814 67 857 59 878.5 55L900 51L900 0L878.5 0C857 0 814 0 771.2 0C728.3 0 685.7 0 642.8 0C600 0 557 0 514.2 0C471.3 0 428.7 0 385.8 0C343 0 300 0 257.2 0C214.3 0 171.7 0 128.8 0C86 0 43 0 21.5 0L0 0Z" fill="#5149b4"></path><path d="M0 46L21.5 44.2C43 42.3 86 38.7 128.8 37.8C171.7 37 214.3 39 257.2 41.5C300 44 343 47 385.8 45C428.7 43 471.3 36 514.2 35.5C557 35 600 41 642.8 42.7C685.7 44.3 728.3 41.7 771.2 42.5C814 43.3 857 47.7 878.5 49.8L900 52L900 0L878.5 0C857 0 814 0 771.2 0C728.3 0 685.7 0 642.8 0C600 0 557 0 514.2 0C471.3 0 428.7 0 385.8 0C343 0 300 0 257.2 0C214.3 0 171.7 0 128.8 0C86 0 43 0 21.5 0L0 0Z" fill="#893dc6"></path><path d="M0 35L21.5 34C43 33 86 31 128.8 28.5C171.7 26 214.3 23 257.2 21.3C300 19.7 343 19.3 385.8 21.5C428.7 23.7 471.3 28.3 514.2 30.8C557 33.3 600 33.7 642.8 34.2C685.7 34.7 728.3 35.3 771.2 33.2C814 31 857 26 878.5 23.5L900 21L900 0L878.5 0C857 0 814 0 771.2 0C728.3 0 685.7 0 642.8 0C600 0 557 0 514.2 0C471.3 0 428.7 0 385.8 0C343 0 300 0 257.2 0C214.3 0 171.7 0 128.8 0C86 0 43 0 21.5 0L0 0Z" fill="#c408ca"></path></svg>